<?xml version="1.0" encoding="utf-8"?>
<!-- Generator: Adobe Illustrator 19.2.1, SVG Export Plug-In . SVG Version: 6.00 Build 0)  -->
<svg version="1.1" id="Layer_1" xmlns="http://www.w3.org/2000/svg" xmlns:xlink="http://www.w3.org/1999/xlink" x="0px" y="0px"
	 viewBox="0 0 630.1 800" enable-background="new 0 0 630.1 800" xml:space="preserve">
<g>
	<path fill="#1F2630" d="M626.1,764c-77.7-58.3-179.2-109.6-204.1-121.9l1.1-102.4c13.8-20.6,23.3-46.8,27.3-58.9
		c18.2-2.9,31.4-18.4,32-19.2l4.5-5.3l-3.5-6c-2.5-4.2-6.3-20.9-9.1-36.8c7.1-3.3,14.7-10.2,20.7-23.6c2.3-5.1,3.9-10.1,4.9-14
		c18.9-2.6,36.1-10.8,36.9-11.2l10.7-5.2l-7.1-9.5c-4-5.4-5.9-15.6-6.4-23.9c9.1-2.7,19-7.3,21.5-8.5L567,312l-8.2-9.8
		c-4.8-5.7-8.8-12.1-11.5-17c7.9-3.9,15.7-8,16.1-8.2l17.7-9.5l-18.3-8.2c-22.6-10.2-34.2-38-36.2-43.2
		c-3.4-26.4-12.4-43.1-29.9-55.5c-6.6-4.6-8.3-8.9-13.4-22.9c-2.9-8.1-6.9-19.2-13.7-33.9c-17.3-37.5-27.7-60.1-59.5-70.7
		c-9-3-17.8-7.7-27.1-12.7C366.1,11.5,347,1.3,323,0.1c-27.8-1.4-47.9,7.5-56.7,12.4c-8.4-2.3-24.3-2.6-52.6,9.5
		c-25.2,10.7-39.2,25.3-51.6,38c-7.6,7.8-14.7,15.1-23.6,20.9c-25,16.1-35.6,67.1-43.6,113.6c-0.4,2.5-0.8,4.8-1.2,6.9
		C86.9,239.8,60.2,272.7,60,273l-8.6,10.4l12.5,5c2.5,1,4.8,1.8,6.9,2.3c-7.2,12-18.6,24.3-23.6,29.1L34,332.7l18.1,3.9
		c2,0.4,4.1,0.8,6.1,1.1c-2.4,2.7-5.1,5.2-7.3,7.1l-8.5,7.1l8.1,7.6c13.8,13,30.5,17.3,39.5,18.7l12.9,29.2
		c0.4,12.3-3.4,18.8-3.5,19L92.5,437l11,3.6c1,1,4.4,5.1,7.8,16.5c5.6,18.5,22.1,25.5,32,28.1c2,9.8,6.7,27.2,15.6,38.6
		c11.7,14.9,26.5,36.4,31.4,43.7c-0.1,11.4-0.8,51.9-4.3,75.6C165.3,654.4,74.2,705.4,3.5,764.3c-4.2,3.5-4.7,9.7-1.3,13.9
		c2,2.3,4.8,3.5,7.6,3.5c2.2,0,4.5-0.8,6.3-2.3c45.3-37.8,99.2-72.2,136.8-94.7c5.6,9.3,20.3,32.1,41.3,55.1
		c35.9,39.4,73.1,60.2,107.8,60.2c33.6,0,98.5-15.2,160.1-115c42.4,22.8,102.3,57.3,152,94.7c4.4,3.3,10.5,2.4,13.8-2
		C631.4,773.4,630.5,767.2,626.1,764z M462.3,396.6l-1.7,0.2c3-14.9,5.5-28.5,6.9-38.6c0.2,0.1,0.4,0.3,0.6,0.4
		c3.8,2.7,8.6,4.5,14.2,5.5l-0.2,1C480.9,373,474.5,395.6,462.3,396.6z M140.3,418.5c0.1,0.5,0.3,1,0.4,1.5
		c-14.5-7.2-25.5-35.9-30.2-52.1c12.4-2.8,20.6-8.9,25.8-14.8c-0.1,6.3-0.7,12.4-1.3,18c-0.5,5.3-1.1,10.3-1.1,14.8
		c0,0.1,0,0.2,0,0.4C133.9,394.1,136.7,404.9,140.3,418.5z M162.2,478.7c-1.5-17.4-4.9-33.4-8.3-47.2h0l-1.5-5.8
		c0-0.1-0.1-0.2-0.1-0.3l-1-3.7h0c-0.5-1.9-1-3.8-1.5-5.7c-3.3-12.4-6.1-23.1-6.1-29.8c0-0.1,0-0.2,0-0.3c0-4,0.5-8.8,1.1-13.8
		c0.7-6.7,1.5-14.1,1.5-21.8c0-11.3-1.7-23.3-7.7-34.5c-5.8-10.9-7.7-40.8-8-58.4c3.2-2.8,6.4-5.7,9.6-8.8c5.8-5.7,11.3-6.4,14.8-6
		c4.2,0.5,6.7,2.6,7.2,3.4l4,6.4l4.3-6.2c0.7-1.1,5.9-8.6,8.9-15.6c7,3.5,19.5,9.4,27.6,10.9l3.1,0.6l1.8-2.6
		c0.1-0.1,7-9.4,16.3-9.4c0,0,0.1,0,0.1,0c4.5,0,9.6,5.9,15.6,12.6c5.7,6.5,12.1,13.8,20.7,19.1l5.1,3.2l9-24.1
		c3.6,3,8.1,7.9,9,14.2l1,6.3l5.9-2.6c1.4-0.6,32.1-14.2,42.2-34.4c6.5,4.4,17.7,10.6,29.4,9.9l7-0.4l-2.7-6.5c0,0-0.9-2.2-1.6-5.2
		c12.9,4.5,39,10.3,60.7-5.3c2.6,4.5,6.6,10.3,11.1,12.6l6.5,3.3l0.7-7.2c0.2-2.5,0.9-6.9,2-10.9c1.1,1.5,2.3,2.9,3.7,4.2
		c0.6,2.7,6.3,29.3,6.3,51.8c0,6.7-0.5,13.1-1.8,18.3c-1.8,7.5-2.5,14.5-2.5,21c0,8,1,15.2,1.8,21.6c0.5,3.5,0.9,6.9,1.2,10l0,0
		c0,0,0,0,0,0c0,0.1,0,0.3,0,0.5c0,0,0,0.1,0,0.1c0,0.2,0,0.3,0,0.5c0,0,0,0.1,0,0.1l0,0c0.1,1.2,0.1,2.3,0.1,3.4c0,1.1,0,2.1-0.1,3
		c-1.9,21.4-13.7,76-23.4,113.5l-1.6,5.6c-0.1,0.3-7.7,26.4-20.4,49.4c-12.2,19.9-30.5,44.6-54.5,63.8c-3.8,3-7.7,7.4-11.8,12
		c-6.5,7.3-14.6,16.4-20.5,16.9c-11.3,0.9-31.7,1.1-46.6,0.5c-10.2-0.4-14.3-4-19.5-8.6c-1-0.9-2.1-1.8-3.2-2.8l-0.3-0.3
		c-0.4-0.2-30-20.8-56.2-52.2c-6.9-10-17.2-24.5-26-35.7C167.9,503.2,163.8,487.2,162.2,478.7z M302.1,790.1
		c-68.9,0-128-90-140.6-110.5c16.6-9.8,29.1-16.6,34.7-19.7l-0.5,9.5c0,0.1,0,0.2,0,0.2c0,2.6,2.1,4.8,4.7,4.9c0.1,0,0.2,0,0.2,0
		c2.6,0,4.8-2,4.9-4.7l2.4-47.4c0.8-11.4,1.3-23.2,1.7-33.2l0.8-16.3c20.2,20.3,38.2,33,40.5,34.5c1,0.8,1.9,1.6,2.8,2.4
		c4.3,3.7,8.9,7.9,16.9,9.9c0.9,9.6,5,37.2,21.8,50c0.9,0.7,1.9,1,3,1c1.5,0,3-0.7,3.9-1.9c0.7-0.9,1-1.9,1-3c0-1.5-0.7-3-1.9-3.9
		c-12.5-9.5-16.5-31.1-17.7-40.9c5.6,0.2,11.8,0.3,18,0.3c10.6,0,21.2-0.3,28.3-0.8c9.9-0.8,18.7-10.6,27.2-20.2
		c3.8-4.3,7.4-8.3,10.5-10.8c14.9-11.9,27.6-25.7,38.2-39.3l-2.5,127.6c0,0,0,0.1,0,0.1c0,2.7,2.1,4.9,4.8,4.9c0,0,0.1,0,0.1,0
		c2.7,0,4.9-2.1,4.9-4.8l0.4-19.6c6.1,3,21.7,10.7,42.8,21.9C394.5,775.6,333.6,790.1,302.1,790.1z"/>
	<path fill="#1F2630" d="M369.5,471.6c-74.1,25.1-144.4,4.9-145.1,4.7c-2.6-0.8-5.4,0.7-6.1,3.3c-0.1,0.5-0.2,0.9-0.2,1.4
		c0,2.1,1.4,4.1,3.5,4.7c1.8,0.5,29.1,8.4,67.8,8.4c24.4,0,53.4-3.1,83.3-13.3c2.1-0.7,3.4-2.6,3.4-4.7c0-0.5-0.1-1.1-0.3-1.6
		C374.9,472.1,372.1,470.7,369.5,471.6z"/>
	<path fill="#1F2630" d="M319,508.7c-29.7,6.1-45,0.6-45.1,0.6c-2.5-1-5.4,0.3-6.4,2.8c-0.2,0.6-0.3,1.2-0.3,1.8
		c0,2,1.2,3.8,3.2,4.6c0.5,0.2,8,3,22.4,3c7.5,0,17-0.8,28.3-3.1c2.3-0.5,3.9-2.5,3.9-4.8c0-0.3,0-0.7-0.1-1
		C324.3,509.8,321.7,508.1,319,508.7z"/>
	<path fill="#1F2630" d="M199.4,314c-0.1,9.1,7.2,16.5,16.3,16.6h0c0.1,0,0.1,0,0.2,0c9,0,16.4-7.3,16.5-16.3c0-3.3-0.9-6.5-2.7-9.2
		c14.1,1.6,23.1,6,28.9,10.5c12.4,9.9,12.6,22.9,12.6,23.7c0,0,0,0,0,0c0,0,0,0.1,0,0.1c0,0.1,0,0.2,0,0.3c0,0.1,0.4,7.2,0.4,17
		c0,6.6-0.2,14.4-0.8,22.1c0,0.1,0,0.3,0,0.4c0,2.6,2,4.7,4.6,4.9c0.1,0,0.3,0,0.4,0c2.6,0,4.7-2,4.9-4.6c0.6-8,0.8-16.1,0.8-22.9
		c0-9.2-0.3-16.1-0.4-17.3c0-2.2-0.6-18.8-16.1-31.3c-19.1-15.4-51.7-17.7-96.9-6.9c-2.3,0.5-3.8,2.6-3.8,4.8c0,0.4,0,0.8,0.1,1.2
		c0.6,2.6,3.3,4.3,5.9,3.7c12-2.9,22.5-4.6,31.8-5.5C200.4,307.7,199.5,310.7,199.4,314z"/>
	<path fill="#1F2630" d="M246.8,425.6c-2.3,0.5-3.9,2.5-3.9,4.8c0,0.3,0,0.7,0.1,1c0.6,2.7,3.2,4.4,5.8,3.8
		c12-2.5,16.5,1.1,22.6,6.1c5.3,4.3,12,9.7,24,9.9c0.1,0,0.2,0,0.4,0c12.2,0,19.3-6,25.6-11.4c6.4-5.4,11.4-9.7,21.3-8
		c2.7,0.4,5.2-1.4,5.7-4.1c0-0.3,0.1-0.5,0.1-0.8c0-2.4-1.7-4.5-4.1-4.9c-14.4-2.4-22.3,4.3-29.3,10.2c-5.8,4.9-10.8,9.2-19.5,9
		c-8.6-0.1-12.9-3.6-17.9-7.6C271,428.3,263.4,422.1,246.8,425.6z"/>
	<path fill="#1F2630" d="M315.4,397.2c0.1,0,0.2,0,0.2,0c2.6-0.1,4.7-2.3,4.7-4.9c0-0.1,0-0.2,0-0.2c-0.5-9.3-0.6-19.1-0.6-27.3
		c0-10.7,0.2-18.8,0.3-19.8c0.9-12.3,5.7-21.5,14.6-28.1c6.3-4.6,14.1-7.5,22.3-9.2c-1.3,2.3-2,5-2,7.7c0,4.4,1.6,8.5,4.7,11.7
		c3.1,3.1,7.2,4.9,11.6,4.9c0.1,0,0.1,0,0.2,0c4.3,0,8.4-1.7,11.5-4.7c3.1-3.1,4.9-7.2,4.9-11.6c0-3.8-1.2-7.3-3.4-10.1
		c16.4,0.5,29.6,3.4,29.8,3.4c2.7,0.6,5.3-1.1,5.9-3.7c0.1-0.4,0.1-0.7,0.1-1.1c0-2.3-1.6-4.3-3.8-4.8c-2.3-0.5-57.7-12.7-87.7,9.5
		c-11.2,8.3-17.4,20.2-18.5,35.4c0,0.1,0,0.1,0,0.2c0,0.1-0.3,8.6-0.3,20.2c0,8.4,0.1,18.3,0.6,27.8
		C310.6,395.2,312.8,397.2,315.4,397.2z"/>
	<path fill="#1F2630" d="M332.4,282.6c6.6,0,16.6-1.4,27.9-2.9c10.5-1.4,22.5-3.1,32.5-3.6c21-1.2,39.1,2.5,39.3,2.5l1,0.2l1-0.2
		c8.3-1.8,15.5-12.1,16.9-14.1l4.1-6.2l-44.8-8.4l-0.7,0.1c-14.8,1.5-72.9,8.4-73.5,8.5l-3.4,0.4l-0.8,3.3
		c-1.8,7.5-5.6,12.4-5.6,12.4l-5.7,7.3l9.2,0.7C330.6,282.6,331.4,282.6,332.4,282.6z"/>
	<path fill="#1F2630" d="M199.3,278.6c10,0.4,22,1.9,32.6,3.2c11,1.4,20.7,2.6,27.3,2.6c1.2,0,2.3,0,3.3-0.1l9.1-0.8l-5.7-7.2
		c0,0-3.9-4.9-5.8-12.4l-0.9-3.3l-3.4-0.4c-0.6-0.1-58.8-6.3-73.6-7.5l-0.7-0.1l-44.7,9l4.2,6.2c1.4,2,8.8,12.2,17.1,13.9l1,0.2
		l1-0.2C160.3,281.6,178.3,277.7,199.3,278.6z"/>
</g>
</svg>
